<svg width="16" height="16" viewBox="0 0 16 16" fill="none" xmlns="http://www.w3.org/2000/svg">
<path d="M0 2C0 0.895431 0.895431 0 2 0H14C15.1046 0 16 0.895431 16 2C16 3.10457 15.1046 4 14 4H2C0.895431 4 0 3.10457 0 2Z" fill="white"/>
<path d="M0 8C0 6.89543 0.895431 6 2 6H14C15.1046 6 16 6.89543 16 8C16 9.10457 15.1046 10 14 10H2C0.895431 10 0 9.10457 0 8Z" fill="white"/>
<path d="M0 14C0 12.8954 0.895431 12 2 12H14C15.1046 12 16 12.8954 16 14C16 15.1046 15.1046 16 14 16H2C0.895431 16 0 15.1046 0 14Z" fill="white"/>
</svg>
