<?xml version="1.0" encoding="UTF-8"?><svg id="a" xmlns="http://www.w3.org/2000/svg" viewBox="0 0 743.86 747.2"><defs><style>.b{fill:#12ad4c;}</style></defs><path class="b" d="M0,747.19c0-33.28,0-64.17,0-95.06,0-156.71-.01-313.41,0-470.12C.02,97.94,49.41,28.32,130.53,4.79,142.42,1.34,155.88,.35,168.09,.32,358.98-.11,549.86,.02,743.66,.02c0,6.3,0,12.28,0,18.25,0,184.51,.6,369.02-.27,553.52-.39,83.72-62.47,158.54-146.66,171.56-12.94,2-26.11,3.65-39.17,3.67-178.25,.24-356.5,.16-534.75,.16-6.86,0-13.71,0-22.8,0ZM561.9,249.02c6.71,8.03,11.44,14.83,17.28,20.46,13.01,12.53,36.41,10.06,38.8-4.57,5.03-30.79,9.29-61.84,10.94-92.93,.09-11.75,.01-22.88-16.02-22.88-33.84,0-67.85,2.25-101.43,6.54-15.9,2.03-18.78,18.62-7.92,31.43,6.29,7.42,12.1,15.25,18.04,22.78-59.2,57.16-176.26,165.99-176.26,165.99,0,0-45.09-43.64-68.45-66.7-17.61-17.38-32.94-19.34-49-3.51-36.85,36.31-72.62,73.75-108.02,111.48-12.12,12.92-7.55,30.48,7.48,39.99,17.37,10.98,29.91,1.61,41.36-9.69,27.23-26.88,80.77-81.46,80.77-81.46,0,0,23.88,21.42,34.47,31.29,10.62,9.9,21.12,19.95,31.46,30.15,24.47,24.1,38.88,23.96,63.45-.05,60.43-59.06,121.03-117.94,183.04-178.33Zm11.1,40.36l-79.52,78.81,.05,213.96c0,7.57,6.16,13.7,13.73,13.67l52.13-.22c7.53-.03,13.61-6.14,13.61-13.67V289.38Zm-113.88,101.1c-26.24,24.22-79.56,76.27-79.56,76.27l1.36,115.62c.09,7.49,6.18,13.51,13.67,13.51h52.02c7.6,0,13.73-6.19,13.67-13.78-.32-37.15-1.16-140.03-1.16-191.61Zm-111.55,101.46c-29.2-22.73-54.28-46.95-80.5-67.36v157.62c0,7.55,6.12,13.67,13.67,13.67h53.16c7.55,0,13.67-6.12,13.67-13.67v-90.27Zm-113.82-68.31c-18.87,19.1-80.41,74.1-80.41,74.1v84.48c.01,7.55,6.13,13.67,13.68,13.67h53.06c7.55,0,13.67-6.12,13.67-13.67v-158.58Z"/></svg>