<svg width="115" height="31" viewBox="0 0 115 31" fill="none" xmlns="http://www.w3.org/2000/svg">
<path d="M9.81379 30.9569C9.00004 30.9569 8.00727 30.9281 6.83548 30.8707C5.66368 30.8132 4.45933 30.7269 3.22244 30.612C2.01809 30.497 0.943947 30.3964 0 30.3102V0H6.54253V9.52851C7.29117 9.26982 8.26767 9.01113 9.47202 8.75243C10.6764 8.49374 11.7993 8.3644 12.8409 8.3644C15.1194 8.3644 16.9259 8.78118 18.2605 9.61474C19.6276 10.4196 20.6041 11.6268 21.19 13.2364C21.7759 14.8461 22.0688 16.8725 22.0688 19.3157C22.0688 22.1901 21.6945 24.4896 20.9458 26.2142C20.2298 27.9101 18.9766 29.1317 17.1863 29.879C15.3961 30.5976 12.9386 30.9569 9.81379 30.9569ZM9.86261 26.128C11.4576 26.128 12.6456 25.8836 13.4268 25.395C14.208 24.8776 14.7288 24.1159 14.9892 23.1099C15.2822 22.1038 15.4286 20.8679 15.4286 19.4019C15.4286 17.9073 15.2984 16.7144 15.038 15.8234C14.7776 14.9036 14.3382 14.2425 13.7198 13.8401C13.1339 13.4089 12.3039 13.1933 11.2297 13.1933C10.416 13.1933 9.56966 13.2939 8.69082 13.4951C7.81197 13.6963 7.09587 13.8832 6.54253 14.0556V25.9555C7.03077 25.9842 7.6004 26.0274 8.2514 26.0848C8.90239 26.1136 9.43947 26.128 9.86261 26.128Z" fill="#2C3C4D"/>
<path d="M26.5592 30.4826V8.83866H33.0529V30.4826H26.5592ZM26.5592 5.38943V0.474269H33.1017V5.38943H26.5592Z" fill="#2C3C4D"/>
<path d="M47.0725 31C45.2822 31 43.8338 30.7701 42.7271 30.3102C41.6204 29.8503 40.8229 29.0598 40.3346 27.9388C39.8789 26.7891 39.6511 25.1938 39.6511 23.153V13.6245H36.7704V8.83866H39.6511V3.10431H46.1448V8.83866H52.3944V13.6245H46.1448V21.644C46.1448 22.765 46.1936 23.6416 46.2913 24.274C46.4215 24.9064 46.6819 25.3519 47.0725 25.6106C47.4631 25.8693 48.0652 25.9986 48.879 25.9986C49.1068 25.9986 49.4486 25.9842 49.9043 25.9555C50.36 25.9268 50.8157 25.898 51.2714 25.8693C51.7271 25.8405 52.1014 25.8118 52.3944 25.783L52.5897 30.3964C51.8085 30.5114 50.8645 30.6407 49.7578 30.7844C48.6837 30.9281 47.7886 31 47.0725 31Z" fill="#2C3C4D"/>
<path d="M64.863 30.9569C63.7889 30.9569 62.6333 30.8994 61.3964 30.7844C60.1921 30.6982 59.0529 30.5832 57.9787 30.4395C56.9371 30.2958 56.042 30.1521 55.2933 30.0083L55.4886 25.7399C56.3349 25.8261 57.2789 25.9268 58.3205 26.0417C59.3946 26.1567 60.4362 26.2573 61.4453 26.3435C62.4869 26.401 63.3332 26.4298 63.9842 26.4298C64.9607 26.4298 65.7581 26.3579 66.3766 26.2142C67.0276 26.0705 67.5158 25.8405 67.8413 25.5243C68.1668 25.1794 68.3296 24.6908 68.3296 24.0584C68.3296 23.5698 68.1831 23.1961 67.8902 22.9374C67.6298 22.6787 67.109 22.4631 66.3278 22.2907C65.5791 22.0895 64.4724 21.8883 63.0077 21.6871C61.1849 21.4571 59.6713 21.1266 58.467 20.6954C57.2952 20.2643 56.4326 19.6319 55.8792 18.7983C55.3259 17.936 55.0492 16.7719 55.0492 15.306C55.0492 13.5239 55.4886 12.1298 56.3675 11.1238C57.2463 10.1178 58.4181 9.41354 59.8829 9.01113C61.3476 8.57997 62.9426 8.3644 64.6677 8.3644C65.807 8.3644 66.9788 8.42188 68.1831 8.53686C69.3874 8.62309 70.5267 8.73806 71.6008 8.88178C72.675 9.0255 73.5701 9.16922 74.2862 9.31293L74.0909 13.6676C73.2772 13.5526 72.3332 13.452 71.2591 13.3658C70.1849 13.2508 69.1108 13.1646 68.0366 13.1071C66.995 13.0496 66.1162 13.0209 65.4001 13.0209C64.6514 13.0209 63.9842 13.0927 63.3983 13.2364C62.8124 13.3514 62.3567 13.5526 62.0312 13.8401C61.7382 14.1275 61.5918 14.5586 61.5918 15.1335C61.5918 15.5359 61.7219 15.8665 61.9823 16.1252C62.2427 16.3839 62.731 16.6138 63.4471 16.815C64.1957 16.9875 65.2699 17.1599 66.6695 17.3324C68.6876 17.5911 70.2988 17.9504 71.5032 18.4103C72.7075 18.8702 73.5701 19.5313 74.0909 20.3936C74.6442 21.2559 74.9209 22.42 74.9209 23.886C74.9209 26.5016 74.0421 28.3412 72.2844 29.4047C70.5592 30.4395 68.0854 30.9569 64.863 30.9569Z" fill="#2C3C4D"/>
<path d="M89.2075 30.9569C86.4082 30.9569 84.2111 30.5832 82.6162 29.8359C81.0538 29.0598 79.9471 27.8238 79.2961 26.128C78.6776 24.4321 78.3684 22.2045 78.3684 19.4451C78.3684 16.7144 78.7265 14.5443 79.4426 12.9346C80.1587 11.2962 81.3142 10.1321 82.9091 9.44228C84.5366 8.72369 86.6524 8.3644 89.2563 8.3644C89.9399 8.3644 90.7374 8.40751 91.6488 8.49374C92.5602 8.57997 93.4716 8.69495 94.383 8.83866C95.3269 8.95364 96.1244 9.06861 96.7754 9.18359L96.5312 13.7969C95.9128 13.7395 95.213 13.6963 94.4318 13.6676C93.6506 13.6101 92.8857 13.567 92.137 13.5382C91.4209 13.4808 90.835 13.452 90.3793 13.452C88.9797 13.452 87.873 13.6532 87.0592 14.0556C86.278 14.4293 85.7247 15.0617 85.3992 15.9527C85.1062 16.815 84.9598 17.9791 84.9598 19.4451C84.9598 21.026 85.1062 22.2907 85.3992 23.2392C85.6921 24.1878 86.2129 24.8632 86.9616 25.2656C87.7428 25.6681 88.882 25.8693 90.3793 25.8693C90.835 25.8693 91.4372 25.8549 92.1858 25.8261C92.9345 25.7687 93.6994 25.7112 94.4806 25.6537C95.2943 25.5962 96.0104 25.5531 96.6289 25.5243L96.8242 30.1377C96.1732 30.2527 95.392 30.3676 94.4806 30.4826C93.5692 30.6263 92.6415 30.7413 91.6976 30.8275C90.7862 30.9138 89.9562 30.9569 89.2075 30.9569Z" fill="#2C3C4D"/>
<path d="M101.036 30.4826V8.83866H107.53V11.3825C108.083 11.0088 108.767 10.6208 109.58 10.2184C110.394 9.7872 111.273 9.39917 112.217 9.05424C113.193 8.68057 114.121 8.43625 115 8.32128V13.8832C114.154 13.9981 113.259 14.1994 112.315 14.4868C111.371 14.7455 110.476 15.0329 109.629 15.3491C108.816 15.6653 108.116 15.9527 107.53 16.2114V30.4826H101.036Z" fill="#2C3C4D"/>
</svg>
